<?xml version="1.0" standalone="no"?>
<!DOCTYPE svg PUBLIC "-//W3C//DTD SVG 20010904//EN"
 "http://www.w3.org/TR/2001/REC-SVG-20010904/DTD/svg10.dtd">
<svg version="1.0" xmlns="http://www.w3.org/2000/svg"
 width="512.000000pt" height="512.000000pt" viewBox="0 0 512.000000 512.000000"
 preserveAspectRatio="xMidYMid meet">

<g transform="translate(0.000000,512.000000) scale(0.100000,-0.100000)"
fill="#000000" stroke="none">
<path d="M1949 5092 c-42 -21 -61 -40 -86 -82 l-33 -54 0 -258 0 -259 73 3 72
3 3 98 3 97 574 0 575 0 0 -750 0 -750 -575 0 -575 0 0 575 0 575 -75 0 -75 0
-2 -162 -3 -163 -630 -5 -630 -5 -57 -28 c-74 -36 -159 -128 -190 -204 l-23
-58 -3 -1195 c-2 -814 1 -1217 8 -1264 20 -131 101 -239 218 -294 l57 -27 684
-3 683 -3 -4 -202 c-6 -227 -14 -267 -74 -354 -78 -113 -205 -173 -365 -173
l-89 0 0 -75 0 -75 1105 0 1105 0 0 75 0 75 -88 0 c-100 0 -185 19 -247 55
-60 36 -132 116 -163 183 -26 55 -27 63 -30 275 l-3 217 451 0 451 0 -3 73 -3
72 -1690 5 -1690 5 -45 25 c-57 32 -97 91 -110 161 -7 37 -10 462 -8 1240 l3
1184 22 40 c11 22 34 52 50 67 62 59 47 58 708 58 l605 0 0 -95 0 -95 -595 0
-595 0 0 -1200 0 -1200 1920 0 1920 0 0 1200 0 1200 -600 0 -600 0 0 95 0 95
610 0 c667 0 651 1 713 -58 16 -15 39 -45 50 -67 l22 -40 3 -1184 c2 -778 -1
-1203 -8 -1240 -14 -76 -53 -130 -119 -164 -53 -26 -58 -27 -233 -27 l-178 0
0 -76 0 -76 203 4 c194 3 204 4 259 30 117 55 198 163 218 294 7 47 10 450 8
1264 l-3 1195 -23 58 c-31 76 -116 168 -190 204 l-57 28 -635 5 -635 5 -5 501
-5 501 -30 48 c-22 36 -45 57 -84 77 l-53 28 -553 0 -553 0 -53 -28z m1155
-143 c24 -19 26 -27 26 -90 l0 -69 -575 0 -575 0 0 69 c0 63 2 71 26 90 26 21
36 21 549 21 513 0 523 0 549 -21z m-1272 -1807 l3 -329 28 -41 c15 -23 46
-54 69 -69 l42 -28 567 -3 c562 -2 569 -2 614 19 49 23 91 66 112 116 10 25
13 106 13 348 l0 315 525 0 525 0 0 -1050 0 -1050 -1770 0 -1770 0 0 1050 0
1050 520 0 519 0 3 -328z m1298 -217 c0 -114 48 -105 -575 -105 -623 0 -575
-9 -575 105 l0 65 575 0 575 0 0 -65z m-190 -2252 c0 -223 7 -272 54 -367 14
-28 43 -73 66 -100 22 -26 40 -50 40 -52 0 -2 -266 -4 -590 -4 l-590 0 41 52
c101 129 121 199 126 466 l5 212 424 0 424 0 0 -207z"/>
<path d="M2030 2188 l0 -283 -83 83 c-45 45 -87 82 -93 82 -5 0 -32 -23 -59
-50 l-50 -50 178 -178 177 -177 177 177 178 178 -53 52 -52 53 -85 -85 -85
-85 0 283 0 282 -75 0 -75 0 0 -282z"/>
<path d="M2830 2295 l-175 -175 53 -52 52 -53 85 85 85 84 2 -279 3 -280 73
-3 72 -3 0 281 c0 154 3 280 8 280 4 0 43 -36 87 -80 l79 -80 53 52 53 53
-172 172 c-95 95 -175 173 -178 173 -3 0 -84 -79 -180 -175z"/>
<path d="M2704 4199 c-88 -84 -186 -179 -219 -211 l-60 -57 -85 74 c-47 41
-89 74 -95 75 -11 0 -95 -95 -94 -107 0 -4 63 -61 140 -126 l140 -119 175 169
c96 92 218 209 270 258 l96 90 -55 54 -55 53 -158 -153z"/>
<path d="M2330 3455 l0 -75 75 0 75 0 0 75 0 75 -75 0 -75 0 0 -75z"/>
<path d="M2640 3455 l0 -75 75 0 75 0 0 75 0 75 -75 0 -75 0 0 -75z"/>
</g>
</svg>
