<?xml version="1.0" standalone="no"?>
<!DOCTYPE svg PUBLIC "-//W3C//DTD SVG 20010904//EN"
 "http://www.w3.org/TR/2001/REC-SVG-20010904/DTD/svg10.dtd">
<svg version="1.0" xmlns="http://www.w3.org/2000/svg"
 width="1280.000000pt" height="834.000000pt" viewBox="0 0 1280.000000 834.000000"
 preserveAspectRatio="xMidYMid meet">

<g transform="translate(0.000000,834.000000) scale(0.100000,-0.100000)"
fill="#000000" stroke="none">
<path d="M1472 8083 c-18 -9 -41 -30 -50 -47 -16 -29 -17 -152 -20 -1699 l-2
-1668 -26 -40 c-13 -22 -36 -45 -49 -51 -14 -6 -25 -15 -25 -20 0 -4 -216 -8
-480 -8 -528 0 -534 -1 -564 -59 -14 -27 -16 -223 -16 -1911 0 -1662 2 -1884
15 -1910 33 -63 -32 -60 1156 -60 595 0 1079 -3 1076 -6 -4 -4 8 -14 25 -23
62 -31 87 -92 88 -213 0 -76 15 -106 59 -119 24 -7 264 -9 713 -7 l677 3 23
23 23 23 3 582 c3 541 4 585 21 622 11 22 28 49 40 59 31 28 26 36 -24 36
l-45 0 0 44 c0 44 1 46 60 82 33 20 60 40 60 44 0 5 -13 13 -29 18 -17 6 -41
28 -55 51 l-26 41 0 240 c0 274 5 298 80 345 37 23 49 25 165 25 l125 0 45
-43 c25 -24 45 -51 45 -60 0 -9 5 -17 10 -17 6 0 10 28 10 65 l0 65 895 0 894
0 5 -33 c3 -17 7 -50 8 -72 l3 -40 23 47 c34 68 73 88 173 88 l80 0 49 -49
c60 -60 64 -84 59 -338 l-4 -178 -28 -31 c-32 -36 -63 -45 -113 -34 -19 4 -34
6 -34 5 0 -2 41 -29 90 -61 l90 -57 0 -73 0 -74 -62 -1 c-53 0 -60 -2 -43 -12
19 -12 57 -48 85 -83 12 -15 15 -55 15 -214 0 -159 -3 -199 -15 -214 -37 -46
-71 -74 -102 -83 -24 -8 321 -11 1225 -12 l1258 -1 26 -30 25 -30 207 0 207 0
29 30 29 30 1215 0 1215 0 -44 23 c-25 12 -59 41 -77 65 l-33 44 0 1485 c0
1646 5 1530 -65 1573 -32 20 -47 20 -1119 20 -936 0 -1086 2 -1086 14 0 8 -9
18 -21 21 -11 4 -33 25 -50 47 l-29 41 -1 1796 c0 988 -3 1827 -8 1864 -6 58
-12 72 -39 100 l-32 32 -3988 2 c-3667 2 -3990 1 -4020 -14z m7548 -1038 l0
-495 -1960 0 -1960 0 0 495 0 495 1960 0 1960 0 0 -495z m-4200 0 l0 -485
-1460 0 -1460 0 0 485 0 485 1460 0 1460 0 0 -485z m-700 -3485 l0 -570 -385
0 -385 0 0 570 0 570 385 0 385 0 0 -570z m2460 0 l0 -570 -1110 0 -1110 0 0
570 0 570 1110 0 1110 0 0 -570z m-3650 255 l0 -185 -1155 0 -1155 0 0 185 0
185 1155 0 1155 0 0 -185z m6040 -332 l0 -293 -877 0 -878 0 3 292 3 293 874
0 875 0 0 -292z m2530 2 l0 -295 -1180 0 -1180 0 0 295 0 295 1180 0 1180 0 0
-295z m-8570 -165 l0 -190 -1155 0 -1155 0 0 190 0 190 1155 0 1155 0 0 -190z
m970 -1045 l0 -135 -550 0 -550 0 0 135 0 135 550 0 550 0 0 -135z m10 -350
l0 -135 -560 0 -560 0 0 135 0 135 560 0 560 0 0 -135z m4640 -540 l0 -345
-670 0 -670 0 0 345 0 345 670 0 670 0 0 -345z m1480 0 l0 -345 -670 0 -670 0
0 345 0 345 670 0 670 0 0 -345z m1458 3 l-3 -343 -643 0 -643 0 1 338 c0 185
0 339 0 342 0 3 290 5 645 5 l645 0 -2 -342z m-10148 -50 l0 -318 -360 0 -360
0 0 318 0 317 360 0 360 0 0 -317z m800 0 l0 -318 -360 0 -360 0 0 318 0 317
360 0 360 0 0 -317z m460 0 l0 -318 -185 0 -185 0 0 313 c0 173 2 316 4 318 2
2 86 4 185 4 l181 0 0 -317z m-735 -408 c18 -11 36 -28 39 -36 3 -9 -10 -2
-29 15 -99 86 -247 -23 -191 -141 35 -73 129 -91 191 -37 19 17 35 38 35 47 0
8 3 12 7 9 11 -12 -19 -57 -53 -77 -65 -41 -155 -16 -187 53 -22 45 -21 74 1
115 37 69 122 92 187 52z m62 -122 c-3 -7 -5 -2 -5 12 0 14 2 19 5 13 2 -7 2
-19 0 -25z m1981 -155 l-3 -88 -553 0 -554 0 1 83 c0 45 0 84 1 87 0 3 250 5
555 5 l556 0 -3 -87z m-497 -190 c13 -16 12 -17 -3 -4 -10 7 -18 15 -18 17 0
8 8 3 21 -13z m9 -107 c0 -2 -8 -10 -17 -17 -16 -13 -17 -12 -4 4 13 16 21 21
21 13z"/>
<path d="M4530 2049 c0 -8 -13 -36 -30 -62 -36 -57 -38 -68 -6 -38 23 22 52
98 42 109 -3 3 -6 -1 -6 -9z"/>
<path d="M6420 2042 c0 -26 28 -78 55 -102 16 -14 24 -18 19 -10 -49 85 -74
122 -74 112z"/>
</g>
</svg>
