<?xml version="1.0" standalone="no"?>
<!DOCTYPE svg PUBLIC "-//W3C//DTD SVG 20010904//EN"
 "http://www.w3.org/TR/2001/REC-SVG-20010904/DTD/svg10.dtd">
<svg version="1.0" xmlns="http://www.w3.org/2000/svg"
 width="128.000000pt" height="128.000000pt" viewBox="0 0 128.000000 128.000000"
 preserveAspectRatio="xMidYMid meet">

<g transform="translate(0.000000,128.000000) scale(0.100000,-0.100000)"
fill="#000000" stroke="none">
<path d="M560 1190 c-50 -12 -83 -31 -171 -97 -63 -47 -85 -71 -115 -126 -21
-38 -48 -80 -61 -93 -23 -25 -43 -31 -43 -13 0 5 -16 -2 -35 -17 -19 -14 -35
-33 -35 -40 0 -8 -6 -14 -14 -14 -27 0 -41 -61 -41 -178 l0 -113 40 -36 c22
-19 32 -30 23 -23 -10 7 -18 10 -18 6 0 -16 77 -55 98 -50 25 7 30 24 7 24 -8
0 -15 5 -15 10 0 6 7 10 15 10 32 0 13 19 -22 22 -34 3 -40 8 -63 52 -31 64
-39 156 -16 191 9 14 14 25 10 25 -4 0 -1 7 6 15 7 8 27 15 46 15 18 0 35 4
38 9 3 5 22 12 41 15 19 4 34 12 32 18 -1 7 4 12 12 13 9 0 19 21 28 58 7 32
18 68 25 81 18 34 109 136 121 136 6 0 3 -8 -5 -17 -38 -45 -26 -43 21 2 47
45 56 50 98 50 28 0 48 6 51 13 2 7 16 12 30 12 18 0 23 -3 14 -9 -14 -8 15
-24 70 -36 14 -4 34 -14 45 -24 10 -9 39 -36 66 -60 29 -27 45 -37 41 -25 -5
12 -4 16 3 9 5 -5 16 -29 23 -52 7 -24 17 -43 21 -43 13 0 39 -56 39 -82 0
-38 48 -100 73 -96 12 2 21 9 19 16 -4 22 15 13 46 -22 17 -20 33 -52 37 -75
9 -56 -3 -122 -24 -128 -9 -3 -28 -22 -43 -44 -19 -27 -35 -39 -52 -39 -22 0
-24 5 -30 76 -13 137 -70 240 -159 285 -39 21 -42 21 -97 4 -69 -21 -105 -18
-105 10 0 16 -13 23 -65 37 -53 14 -61 14 -46 3 11 -8 25 -15 32 -15 7 0 15
-4 19 -9 3 -6 -7 -6 -27 0 -18 5 -46 9 -63 9 l-30 1 25 15 25 15 -25 -6 c-45
-12 -105 -61 -108 -89 -4 -31 -5 -31 49 -6 63 28 120 26 149 -5 13 -14 46 -32
74 -40 45 -14 51 -13 67 1 10 9 38 19 62 21 38 5 47 2 69 -22 31 -33 64 -98
73 -145 7 -34 6 -34 -10 -15 -16 19 -16 19 -10 1 17 -54 25 -113 19 -139 -4
-19 -9 -25 -14 -18 -4 8 -9 1 -13 -18 -4 -18 -19 -43 -34 -58 -18 -16 -22 -24
-10 -20 30 11 19 -19 -18 -52 -20 -17 -44 -31 -53 -31 -10 0 -28 -8 -42 -17
-13 -9 -42 -18 -64 -19 -22 -1 -42 -7 -44 -13 -2 -7 -13 -6 -32 4 -37 19 -60
19 -34 0 18 -14 18 -14 -3 -8 -13 3 -23 11 -23 17 0 7 -12 17 -27 24 -28 12
-28 12 7 7 19 -2 46 -7 60 -10 14 -4 -4 10 -40 30 -76 42 -97 67 -113 135 -14
60 -33 65 -42 10 -10 -59 3 -100 44 -144 34 -36 35 -38 11 -33 l-25 6 25 -19
c14 -11 45 -26 70 -35 51 -17 200 -45 242 -45 39 0 93 52 158 153 58 91 82
107 154 107 21 0 55 9 75 21 31 17 39 29 54 82 40 148 30 239 -33 286 -17 12
-30 28 -30 36 0 9 -17 19 -45 26 -47 12 -50 15 -100 116 -14 28 -32 57 -40 63
-8 7 -15 17 -15 23 0 6 7 2 15 -9 8 -10 15 -15 15 -11 0 13 -72 81 -118 112
-23 15 -57 29 -75 30 -18 1 -42 7 -52 13 -20 11 -20 11 0 12 l20 1 -20 9 c-25
11 -99 11 -145 0z m0 -14 c0 -3 -4 -8 -10 -11 -5 -3 -10 -1 -10 4 0 6 5 11 10
11 6 0 10 -2 10 -4z m241 -56 c28 -16 23 -32 -6 -18 -14 6 -25 15 -25 20 0 11
7 10 31 -2z m-491 -139 c-13 -25 -13 -34 0 -26 13 8 13 8 -10 -50 -15 -40 -19
-45 -20 -23 0 15 5 30 10 33 6 3 10 13 10 21 0 8 -5 12 -11 8 -6 -3 -3 8 5 25
9 17 19 31 22 31 2 0 0 -9 -6 -19z m872 -326 c3 -13 1 -22 -3 -19 -9 5 -13 44
-5 44 2 0 6 -11 8 -25z m-1103 -137 c10 -30 9 -31 -4 -14 -8 11 -15 26 -15 33
0 22 8 14 19 -19z m1061 -79 c-7 -11 -14 -18 -17 -15 -3 3 0 12 7 21 18 21 23
19 10 -6z m-340 -249 c0 -5 -5 -10 -11 -10 -5 0 -7 5 -4 10 3 6 8 10 11 10 2
0 4 -4 4 -10z m-50 -45 c0 -8 -6 -15 -14 -15 -20 0 -29 17 -14 23 22 9 28 7
28 -8z"/>
<path d="M1130 806 c0 -2 8 -10 18 -17 15 -13 16 -12 3 4 -13 16 -21 21 -21
13z"/>
<path d="M429 731 c-25 -31 -24 -54 2 -101 21 -38 42 -50 86 -50 16 0 21 4 16
16 -4 11 -1 15 13 13 30 -5 44 9 44 44 -1 82 -114 138 -161 78z"/>
<path d="M731 704 c-17 -14 -31 -34 -31 -44 0 -10 -4 -22 -10 -25 -31 -19 26
-95 71 -95 80 0 115 127 47 174 -31 22 -41 20 -77 -10z"/>
</g>
</svg>
