<?xml version="1.0" standalone="no"?>
<!DOCTYPE svg PUBLIC "-//W3C//DTD SVG 20010904//EN"
 "http://www.w3.org/TR/2001/REC-SVG-20010904/DTD/svg10.dtd">
<svg version="1.0" xmlns="http://www.w3.org/2000/svg"
 width="385.000000pt" height="72.000000pt" viewBox="0 0 385.000000 72.000000"
 preserveAspectRatio="xMidYMid meet">

<g transform="translate(0.000000,72.000000) scale(0.100000,-0.100000)"
fill="#000000" stroke="none">
<path d="M317 662 c-22 -25 -21 -45 3 -67 17 -15 24 -16 45 -7 44 20 27 92
-23 92 -5 0 -16 -8 -25 -18z"/>
<path d="M979 670 c-45 -13 -76 -39 -113 -95 -23 -34 -43 -55 -55 -55 -10 0
-22 -7 -25 -16 -9 -23 -8 -24 18 -24 l23 0 -39 -161 c-43 -180 -69 -249 -93
-249 -11 0 -15 6 -10 19 8 27 -18 45 -44 31 -25 -13 -27 -33 -5 -54 21 -22 52
-20 104 6 57 30 91 91 125 228 15 58 31 122 36 143 8 30 14 37 34 37 14 0 25
2 25 4 0 2 3 11 6 20 5 12 0 16 -20 16 -14 0 -26 2 -26 4 0 16 43 99 59 115
27 27 55 28 46 2 -7 -22 16 -44 39 -35 26 10 20 53 -10 64 -29 11 -39 11 -75
0z"/>
<path d="M1199 670 c-45 -13 -76 -39 -113 -95 -23 -34 -43 -55 -55 -55 -10 0
-22 -7 -25 -16 -9 -23 -8 -24 18 -24 l23 0 -39 -161 c-43 -180 -69 -249 -93
-249 -11 0 -15 6 -10 19 8 27 -18 45 -44 31 -25 -13 -27 -33 -5 -54 21 -22 52
-20 104 6 57 30 91 91 125 228 15 58 31 122 36 143 8 30 14 37 34 37 14 0 25
2 25 4 0 2 3 11 6 20 5 12 0 16 -20 16 -14 0 -26 2 -26 4 0 16 43 99 59 115
27 27 55 28 46 2 -7 -22 16 -44 39 -35 26 10 20 53 -10 64 -29 11 -39 11 -75
0z"/>
<path d="M2965 665 c-33 -7 -52 -13 -43 -14 9 -1 20 -6 23 -11 5 -8 -51 -222
-111 -422 -4 -15 1 -18 34 -18 l39 0 17 58 c9 32 27 69 40 81 l24 22 6 -38
c15 -79 27 -113 47 -124 18 -9 26 -5 60 31 21 22 39 46 39 52 0 5 -9 0 -20
-13 -25 -31 -32 -21 -54 79 l-17 75 28 30 c15 16 44 37 63 47 l35 19 -70 0
c-52 0 -64 -3 -47 -9 12 -5 22 -15 22 -22 0 -16 -117 -134 -124 -127 -3 3 15
72 39 154 48 161 49 166 38 164 -5 -1 -35 -7 -68 -14z"/>
<path d="M290 515 c-30 -7 -47 -13 -38 -14 9 0 18 -7 21 -13 5 -18 -89 -386
-104 -404 -17 -21 -36 -17 -35 8 1 28 -32 31 -48 5 -16 -27 18 -50 64 -43 82
13 120 77 180 306 22 85 40 158 40 163 0 9 -12 8 -80 -8z"/>
<path d="M535 514 c-73 -38 -125 -123 -133 -219 -4 -54 -2 -65 17 -84 30 -30
46 -27 94 21 23 22 32 33 20 23 -31 -25 -53 -13 -53 29 0 43 33 151 60 194 25
40 57 43 66 6 8 -32 -10 -118 -35 -168 -10 -20 -15 -33 -10 -30 6 3 7 -11 3
-33 -4 -29 -2 -42 10 -52 21 -17 75 1 107 36 l24 26 -25 -16 c-51 -35 -51 -25
-5 139 19 68 35 126 35 129 0 3 -16 5 -35 5 -27 0 -38 -5 -43 -21 -8 -21 -9
-21 -25 5 -20 30 -31 32 -72 10z"/>
<path d="M1335 514 c-73 -38 -125 -123 -133 -219 -4 -54 -2 -65 17 -84 30 -30
46 -27 94 21 23 22 32 33 20 23 -31 -25 -53 -13 -53 29 0 43 33 151 60 194 25
40 57 43 66 6 8 -32 -10 -118 -35 -168 -10 -20 -15 -33 -10 -30 6 3 7 -11 3
-33 -4 -29 -2 -42 10 -52 21 -17 75 1 107 36 l24 26 -25 -16 c-51 -35 -51 -25
-5 139 19 68 35 126 35 129 0 3 -16 5 -35 5 -27 0 -38 -5 -43 -21 -8 -21 -9
-21 -25 5 -20 30 -31 32 -72 10z"/>
<path d="M1645 515 c-33 -7 -52 -13 -42 -14 21 -1 23 -39 3 -107 -8 -27 -24
-82 -35 -122 l-20 -72 39 0 c38 0 39 0 55 58 9 31 27 77 41 101 14 25 17 38 9
31 -19 -15 -19 -19 5 65 11 38 20 71 20 72 0 4 -4 3 -75 -12z"/>
<path d="M1804 515 c-16 -7 -40 -28 -53 -46 -19 -27 -20 -30 -4 -16 20 17 43
23 43 10 0 -5 -16 -64 -35 -133 -19 -69 -35 -126 -35 -127 0 -2 17 -3 39 -3
l38 0 18 63 c9 34 25 77 36 95 10 18 14 30 8 26 -7 -4 -9 0 -6 12 22 72 20
117 -6 127 -7 3 -26 -1 -43 -8z"/>
<path d="M1975 516 c-17 -7 -36 -20 -44 -29 -12 -15 -11 -17 8 -17 17 0 21 -5
17 -17 -29 -93 -56 -217 -51 -232 12 -39 80 -28 120 20 l20 24 -21 -18 c-21
-18 -44 -23 -44 -9 0 4 14 54 30 112 35 122 36 141 13 163 -15 13 -23 13 -48
3z"/>
<path d="M2273 520 c-112 -26 -205 -189 -159 -278 29 -56 108 -60 186 -8 93
61 134 228 67 270 -32 20 -58 25 -94 16z m53 -36 c10 -39 -12 -131 -49 -204
-29 -58 -35 -65 -62 -65 l-30 0 1 65 c1 70 30 159 65 204 27 35 66 35 75 0z"/>
<path d="M2535 515 c-33 -7 -53 -13 -44 -14 9 -1 19 -8 23 -16 5 -15 -16 -106
-53 -223 l-19 -63 40 3 41 3 17 61 c9 34 27 78 39 100 14 24 17 33 7 25 -20
-17 -20 -19 4 59 22 72 23 81 13 79 -5 -1 -35 -7 -68 -14z"/>
<path d="M2704 515 c-16 -7 -40 -25 -54 -41 -14 -16 -18 -23 -10 -16 8 6 22
12 32 12 23 0 23 -7 -7 -115 -14 -49 -25 -102 -25 -117 0 -54 60 -57 107 -5
17 20 19 24 5 13 -12 -11 -25 -16 -29 -12 -4 3 4 46 17 94 30 111 34 136 26
166 -8 31 -25 37 -62 21z"/>
<path d="M3385 521 c-76 -19 -135 -69 -171 -146 -31 -65 -31 -116 -1 -151 19
-22 31 -26 73 -26 31 0 66 8 91 21 43 21 74 52 37 36 -10 -5 -40 -10 -65 -13
-54 -4 -79 14 -79 59 0 23 5 30 28 35 105 22 172 76 172 140 0 28 -5 36 -26
44 -14 6 -26 10 -27 9 -1 -1 -15 -4 -32 -8z m15 -41 c0 -58 -57 -130 -102
-130 -21 0 -20 10 9 80 31 76 93 109 93 50z"/>
<path d="M3727 519 c-23 -14 -21 -48 5 -76 l21 -22 -31 -63 c-17 -35 -42 -76
-55 -93 l-25 -29 -7 104 c-8 132 -20 180 -43 179 -9 0 -35 -6 -57 -14 -27 -9
-33 -13 -18 -14 17 -1 25 -10 32 -38 15 -54 14 -326 -1 -341 -16 -16 -49 -15
-72 3 -23 18 -56 3 -56 -25 0 -32 35 -43 75 -24 79 37 276 307 285 389 6 55
-18 83 -53 64z"/>
<path d="M1899 443 c-13 -16 -12 -17 4 -4 16 13 21 21 13 21 -2 0 -10 -8 -17
-17z"/>
<path d="M2609 423 c-13 -16 -12 -17 4 -4 16 13 21 21 13 21 -2 0 -10 -8 -17
-17z"/>
</g>
</svg>
