<?xml version="1.0" standalone="no"?>
<!DOCTYPE svg PUBLIC "-//W3C//DTD SVG 20010904//EN"
 "http://www.w3.org/TR/2001/REC-SVG-20010904/DTD/svg10.dtd">
<svg version="1.0" xmlns="http://www.w3.org/2000/svg"
 width="385.000000pt" height="72.000000pt" viewBox="0 0 385.000000 72.000000"
 preserveAspectRatio="xMidYMid meet">

<g transform="translate(0.000000,72.000000) scale(0.100000,-0.100000)"
fill="#000000" stroke="none">
<path d="M318 669 c-25 -14 -24 -65 1 -79 31 -16 49 -12 67 15 15 23 15 27 0
50 -17 26 -40 31 -68 14z"/>
<path d="M950 658 c-30 -15 -58 -41 -83 -78 -21 -30 -46 -57 -55 -59 -33 -7
-43 -41 -12 -41 11 0 20 -6 20 -12 0 -41 -85 -351 -102 -373 -25 -32 -37 -32
-31 -1 4 18 0 26 -17 31 -46 15 -70 -46 -26 -66 41 -19 96 -2 138 42 39 41 64
107 108 287 20 83 25 92 45 92 13 0 26 7 29 16 9 22 9 22 -19 26 l-24 3 20 45
c36 80 90 119 86 63 -2 -24 2 -28 23 -28 19 0 26 6 28 24 8 52 -55 66 -128 29z"/>
<path d="M1170 658 c-30 -15 -58 -41 -83 -78 -21 -30 -46 -57 -55 -59 -33 -7
-43 -41 -12 -41 11 0 20 -6 20 -12 0 -41 -85 -351 -102 -373 -25 -32 -37 -32
-31 -1 4 18 0 26 -17 31 -46 15 -70 -46 -26 -66 41 -19 96 -2 138 42 39 41 64
107 108 287 20 83 25 92 45 92 13 0 26 7 29 16 9 22 9 22 -19 26 l-24 3 20 45
c36 80 90 119 86 63 -2 -24 2 -28 23 -28 19 0 26 6 28 24 8 52 -55 66 -128 29z"/>
<path d="M2965 665 c-33 -7 -52 -13 -42 -14 10 0 20 -7 23 -14 2 -7 -23 -106
-56 -220 -33 -113 -60 -209 -60 -212 0 -3 17 -5 38 -5 39 0 39 0 57 60 10 32
28 69 40 80 l23 21 12 -66 c15 -81 37 -113 67 -97 25 14 73 69 73 84 0 6 -8 0
-18 -12 -24 -30 -35 -15 -56 79 l-16 75 27 29 c16 16 44 37 63 47 l35 19 -70
0 c-52 0 -64 -3 -47 -9 12 -5 22 -16 22 -23 0 -14 -118 -133 -125 -126 -2 3
16 71 41 154 24 82 44 152 44 157 0 9 3 10 -75 -7z"/>
<path d="M287 518 c-42 -9 -46 -12 -30 -23 17 -13 16 -23 -25 -187 -49 -198
-64 -238 -88 -238 -13 0 -14 3 -5 14 16 20 -14 44 -37 29 -45 -28 -7 -70 54
-59 45 9 93 51 115 103 17 41 99 338 99 361 0 14 -16 14 -83 0z"/>
<path d="M535 518 c-100 -55 -170 -234 -119 -306 26 -38 78 -21 123 40 l29 39
-5 -45 c-5 -38 -3 -45 16 -51 11 -3 31 -3 44 0 25 8 77 54 77 69 0 5 -11 -1
-25 -14 -14 -13 -28 -20 -32 -17 -3 4 10 67 30 140 21 73 37 136 37 140 0 4
-18 7 -40 7 -35 0 -40 -3 -40 -22 -1 -22 -1 -22 -12 -3 -21 36 -46 44 -83 23z
m66 -32 c20 -43 -29 -197 -75 -235 -24 -20 -46 -6 -46 29 0 43 48 184 71 209
26 27 37 26 50 -3z"/>
<path d="M1335 518 c-100 -55 -170 -234 -119 -306 26 -38 78 -21 123 40 l29
39 -5 -45 c-5 -38 -3 -45 16 -51 11 -3 31 -3 44 0 25 8 77 54 77 69 0 5 -11
-1 -25 -14 -14 -13 -28 -20 -32 -17 -3 4 10 67 30 140 21 73 37 136 37 140 0
4 -18 7 -40 7 -35 0 -40 -3 -40 -22 -1 -22 -1 -22 -12 -3 -21 36 -46 44 -83
23z m66 -32 c20 -43 -29 -197 -75 -235 -24 -20 -46 -6 -46 29 0 43 48 184 71
209 26 27 37 26 50 -3z"/>
<path d="M1645 515 c-33 -7 -52 -13 -42 -14 11 -1 17 -9 17 -26 0 -20 -39
-171 -66 -257 -4 -15 1 -18 35 -18 l40 0 21 68 c33 101 113 222 134 201 5 -4
-33 -159 -60 -251 -4 -15 1 -18 35 -18 38 0 41 2 50 37 6 21 11 42 11 47 0 4
11 30 25 58 13 27 19 46 13 42 -8 -5 -9 -2 -3 12 4 10 10 40 12 66 5 39 2 48
-16 57 -32 18 -73 -9 -123 -79 -23 -33 -43 -58 -45 -57 -1 2 6 32 17 68 11 35
20 67 20 72 0 8 2 8 -75 -8z"/>
<path d="M1964 511 c-17 -10 -42 -34 -54 -53 l-24 -33 27 24 c15 14 30 21 34
17 4 -4 -5 -56 -20 -117 -16 -60 -26 -118 -22 -129 13 -41 76 -30 120 21 l20
24 -21 -18 c-17 -14 -44 -23 -44 -14 0 1 14 52 30 112 34 126 36 148 14 169
-20 20 -22 20 -60 -3z"/>
<path d="M2256 516 c-101 -37 -180 -182 -147 -269 25 -65 129 -67 205 -5 80
66 115 208 63 256 -31 29 -73 35 -121 18z m70 -31 c9 -35 -22 -161 -54 -220
-23 -43 -31 -50 -57 -50 -28 0 -30 3 -33 39 -4 47 39 192 69 229 27 35 66 36
75 2z"/>
<path d="M2535 515 c-33 -7 -53 -13 -44 -14 30 -2 29 -29 -10 -166 l-38 -136
40 3 40 3 18 63 c10 34 28 79 40 100 16 26 18 33 7 24 -15 -12 -15 -6 2 55 11
37 20 71 20 75 0 9 2 9 -75 -7z"/>
<path d="M2705 518 c-30 -16 -64 -49 -87 -83 l-21 -30 32 33 c32 31 61 42 61
21 0 -5 -11 -51 -26 -101 -39 -142 -24 -188 50 -153 20 10 42 27 48 39 11 20
10 20 -9 3 -41 -36 -43 -16 -8 102 31 105 32 156 6 171 -23 12 -21 12 -46 -2z"/>
<path d="M3359 514 c-50 -15 -118 -73 -144 -124 -9 -17 -19 -53 -22 -80 -7
-57 12 -95 55 -111 37 -15 119 4 157 37 29 24 29 25 5 17 -14 -4 -45 -8 -70
-8 -38 0 -46 4 -60 27 -20 36 -5 61 41 69 80 13 149 76 149 135 0 28 -5 36
-26 44 -30 12 -28 12 -85 -6z m41 -34 c0 -58 -57 -130 -101 -130 -23 0 -23 -1
-2 52 36 96 103 146 103 78z"/>
<path d="M3716 508 c-14 -20 -14 -24 -1 -43 36 -49 36 -51 4 -112 -17 -33 -41
-73 -53 -88 l-23 -29 -7 110 c-8 123 -20 174 -43 174 -9 0 -33 -5 -54 -12 -37
-11 -38 -12 -17 -22 31 -15 39 -74 36 -238 -3 -111 -6 -132 -20 -142 -13 -8
-25 -6 -48 7 -35 21 -70 9 -70 -23 0 -31 34 -43 72 -27 78 33 268 293 292 399
5 20 1 33 -14 48 -26 26 -35 25 -54 -2z"/>
</g>
</svg>
